<svg width="1200" height="400" viewBox="0 0 1200 400" fill="none" xmlns="http://www.w3.org/2000/svg">
<path d="M276.2 260.8L272.8 260.2C271.067 259.933 269.267 259.667 267.4 259.4C265.667 259.133 263.867 258.933 262 258.8C260.133 258.8 258.267 258.267 256.4 257.2C254.667 256.267 253.467 254.8 252.8 252.8C252.667 252.133 252.467 251.467 252.2 250.8C252.067 250.133 251.933 249.467 251.8 248.8C251.8 247.2 252.133 246 252.8 245.2C253.467 244.533 254 243.867 254.4 243.2C254.933 242.533 255.467 241.933 256 241.4C256.267 241.133 256.533 240.933 256.8 240.8C257.067 240.667 257.333 240.533 257.6 240.4C258.267 240 258.933 239.733 259.6 239.6C260.267 239.333 260.933 239.133 261.6 239C261.867 238.867 262.067 238.867 262.2 239C262.467 239 262.667 239 262.8 239C263.467 239.133 264.2 239.267 265 239.4C265.8 239.4 266.533 239.533 267.2 239.8L275.6 241C277.467 241.267 279.133 241 280.6 240.2C281.133 239.933 281.6 239.667 282 239.4C282.533 239.133 283 238.867 283.4 238.6C286.333 236.867 288.867 235.067 291 233.2C292.6 231.733 294.133 230.267 295.6 228.8C297.067 227.333 298.4 225.733 299.6 224C300.533 222.8 301.133 221.6 301.4 220.4C301.667 219.067 301.733 217.733 301.6 216.4L301 214.8C300.867 214.133 300.6 213.6 300.2 213.2C299.8 212.8 299.4 212.333 299 211.8C298.2 211.133 297.4 210.4 296.6 209.6C295.933 208.8 295.2 208.133 294.4 207.6C292.4 206 290.4 204.467 288.4 203C286.533 201.533 284.6 200.067 282.6 198.6C282.467 198.333 282.067 198.067 281.4 197.8C280.2 197 279 196.133 277.8 195.2C276.733 194.133 275.667 193.133 274.6 192.2C273.267 190.867 271.8 189.6 270.2 188.4C269.4 188 268.667 187.333 268 186.4C267.467 185.733 266.667 185.067 265.6 184.4C264.667 183.867 263.8 183.267 263 182.6C262.2 181.8 261.4 181.067 260.6 180.4L258 178C257.467 177.333 256.867 176.733 256.2 176.2C255.667 175.533 255.067 174.867 254.4 174.2C254.133 173.533 253.733 173 253.2 172.6C252.8 172.2 252.4 171.733 252 171.2C251.867 170.933 251.667 170.667 251.4 170.4C251.133 170 250.933 169.6 250.8 169.2C250 167.6 249.133 166 248.2 164.4C247.4 162.8 246.667 161.133 246 159.4C245.6 158.333 245.2 157.333 244.8 156.4C244.533 155.333 244.267 154.333 244 153.4C243.867 152.333 243.6 151.4 243.2 150.6C242.933 149.667 242.667 148.733 242.4 147.8C242.133 146.333 241.8 144.933 241.4 143.6C241.133 142.133 240.867 140.733 240.6 139.4L240.2 137.8C240.067 136.333 240.067 134.933 240.2 133.6C240.467 131.733 240.867 130.067 241.4 128.6C241.933 127 242.8 125.733 244 124.8C245.333 123.733 246.667 122.667 248 121.6C249.333 120.533 250.733 119.667 252.2 119C252.467 119 252.667 118.933 252.8 118.8C254.133 117.733 255.6 117 257.2 116.6C258.8 116.067 260.4 115.6 262 115.2C268.4 113.333 275 111.933 281.8 111H283.8C285.133 111 286.4 111 287.6 111C288.8 111 290.067 110.933 291.4 110.8C293 110.8 294.6 111 296.2 111.4C297.8 111.667 299.333 112.133 300.8 112.8C301.867 113.333 302.933 113.933 304 114.6C305.067 115.133 306.067 115.733 307 116.4C308.067 117.2 308.733 118.067 309 119L309.6 120.4C310.267 121.6 310.6 122.867 310.6 124.2C310.733 125.4 310.667 126.667 310.4 128C310.4 128.4 310.333 128.867 310.2 129.4C310.2 129.8 310.2 130.2 310.2 130.6C309.8 133.533 308.4 135.8 306 137.4C304.533 138.733 302.6 139.267 300.2 139C299.667 138.733 299.4 138.867 299.4 139.4C299.4 139.933 299.067 140.2 298.4 140.2H297.2C296.4 140.2 295.6 139.8 294.8 139C294.133 138.333 293.8 137.8 293.8 137.4C293.8 136.867 294.067 136.467 294.6 136.2C294.333 135.533 294.067 134.933 293.8 134.4C293.533 133.867 293.267 133.467 293 133.2C292.6 132.533 292 132.067 291.2 131.8C290.533 131.667 289.867 131.533 289.2 131.4C288.533 131.267 287.867 131.133 287.2 131C286.667 131 286.067 131 285.4 131C284.733 130.867 284.067 130.733 283.4 130.6C283 130.467 282.4 130.533 281.6 130.8C281.2 130.933 280.8 131.067 280.4 131.2C280 131.2 279.533 131.133 279 131C278.6 131 278.133 131 277.6 131C277.2 131 276.733 131.133 276.2 131.4L272.4 132C270.267 132.4 268.2 133.2 266.2 134.4C265.8 134.533 265.4 134.667 265 134.8C264.6 134.933 264.2 134.933 263.8 134.8C263 134.667 262.333 134.867 261.8 135.4C261.667 135.667 261.333 135.867 260.8 136C260.4 136 260.067 136.133 259.8 136.4C259.267 136.933 259 137.467 259 138C259.133 138.267 259.2 138.667 259.2 139.2L263.4 151.4C264.2 153.533 265.2 155.533 266.4 157.4C267.733 159.133 269.133 160.867 270.6 162.6C272.867 165.267 275.2 167.533 277.6 169.4L284 174.8C285.333 176 286.733 177.133 288.2 178.2C289.667 179.267 291.067 180.333 292.4 181.4C294.4 182.867 296.4 184.4 298.4 186C300.4 187.467 302.4 189 304.4 190.6C306 191.933 307.533 193.267 309 194.6C310.6 195.8 312.067 197.133 313.4 198.6C314.333 199.667 315.267 200.733 316.2 201.8C317.133 202.867 317.933 204.067 318.6 205.4C319.533 206.867 320.333 208.6 321 210.6C321.8 213.133 322.133 215.533 322 217.8C321.867 218.067 321.8 218.467 321.8 219C321.8 220.6 321.6 222.133 321.2 223.6C320.933 224.933 320.467 226.333 319.8 227.8C319.133 229.133 318.4 230.533 317.6 232C316.933 233.333 316.133 234.667 315.2 236C313.867 237.733 312.467 239.4 311 241C309.667 242.467 308.133 243.933 306.4 245.4C305.467 246.2 304.533 247.067 303.6 248C302.667 248.8 301.667 249.533 300.6 250.2C299.933 250.733 299.267 251.2 298.6 251.6C297.933 252.133 297.267 252.667 296.6 253.2C296.067 253.467 295.533 253.8 295 254.2C294.467 254.6 293.933 255 293.4 255.4C292.867 255.933 292.2 256.333 291.4 256.6C290.733 257 290.067 257.333 289.4 257.6L283.6 260C282.4 260.4 281.2 260.667 280 260.8C278.8 260.933 277.533 260.933 276.2 260.8ZM439.786 267C437.386 267.267 435.519 266.533 434.186 264.8C433.786 263.867 433.186 263.4 432.386 263.4C431.986 263.267 431.719 263 431.586 262.6C431.453 262.067 431.186 261.533 430.786 261C429.986 259.667 429.119 258.4 428.186 257.2C427.386 256 426.453 254.8 425.386 253.6C424.853 253.067 424.386 252.533 423.986 252C423.586 251.467 423.186 250.933 422.786 250.4C422.519 250.133 422.253 249.8 421.986 249.4C421.719 249 421.453 248.667 421.186 248.4C420.253 247.333 419.586 246.733 419.186 246.6C418.919 246.467 418.053 246.733 416.586 247.4C413.786 248.6 410.986 249.667 408.186 250.6C405.386 251.533 402.453 252.267 399.386 252.8C397.919 253.2 396.319 253.267 394.586 253L390.586 252.6C390.053 252.467 389.453 252.4 388.786 252.4C388.119 252.4 387.453 252.333 386.786 252.2L382.586 251.6H381.586C380.386 251.067 379.186 250.667 377.986 250.4C376.786 250 375.653 249.533 374.586 249C372.986 248.333 371.386 247.6 369.786 246.8C368.319 246 366.853 245.267 365.386 244.6C364.053 243.933 362.653 243 361.186 241.8C360.919 241.667 360.653 241.467 360.386 241.2C359.053 240.267 357.786 239.2 356.586 238C355.386 236.8 354.253 235.667 353.186 234.6C352.786 234.2 352.319 233.6 351.786 232.8C351.253 232.133 350.786 231.467 350.386 230.8C349.986 230.133 349.519 229.533 348.986 229C348.853 229 348.786 228.933 348.786 228.8C347.586 227.067 346.453 225.2 345.386 223.2C343.786 220.4 342.586 217.4 341.786 214.2C341.519 213.133 341.319 212.133 341.186 211.2C341.053 210.133 340.919 209.133 340.786 208.2C340.786 207.533 340.719 206.933 340.586 206.4C340.586 205.867 340.519 205.333 340.386 204.8C340.386 204.4 340.319 204 340.186 203.6C340.186 203.067 340.186 202.6 340.186 202.2C340.319 200.333 340.053 199.4 339.386 199.4C338.853 199.267 338.586 198.467 338.586 197C338.853 195.533 339.119 194.067 339.386 192.6C339.653 191.133 340.119 189.733 340.786 188.4C341.053 187.867 341.186 187.467 341.186 187.2C341.986 183.467 343.319 179.667 345.186 175.8C345.853 174.6 346.453 173.4 346.986 172.2C347.519 171 348.053 169.867 348.586 168.8C349.653 166.533 350.853 164.333 352.186 162.2C353.653 160.067 355.053 158 356.386 156C356.786 155.467 357.119 155 357.386 154.6C357.786 154.067 358.186 153.6 358.586 153.2C359.653 151.6 360.786 150.133 361.986 148.8C363.186 147.467 364.453 146.133 365.786 144.8C368.319 142.4 371.253 140.533 374.586 139.2C375.253 138.933 375.919 138.667 376.586 138.4C377.386 138.133 378.119 137.867 378.786 137.6C379.453 137.6 379.853 137.4 379.986 137C380.253 136.6 380.586 136.267 380.986 136C381.386 135.733 381.786 135.533 382.186 135.4C383.119 135 384.053 134.6 384.986 134.2C385.919 133.8 386.786 133.267 387.586 132.6C388.119 132.333 388.519 132.2 388.786 132.2C389.453 132.333 390.053 132.4 390.586 132.4C391.253 132.4 391.853 132.467 392.386 132.6C393.719 132.867 395.053 133.2 396.386 133.6C397.719 134 399.053 134.533 400.386 135.2C400.919 135.467 401.253 135.6 401.386 135.6C402.719 135.867 403.853 136.4 404.786 137.2C405.853 138 406.853 138.8 407.786 139.6C408.453 140 409.053 140.467 409.586 141C410.119 141.4 410.653 141.867 411.186 142.4C411.453 142.533 411.719 142.733 411.986 143C412.253 143.267 412.453 143.533 412.586 143.8C412.986 144.333 413.453 144.867 413.986 145.4C414.519 145.933 415.053 146.533 415.586 147.2C416.253 147.867 416.919 148.6 417.586 149.4C418.253 150.2 418.986 150.933 419.786 151.6C420.053 151.867 420.319 152.2 420.586 152.6C420.853 152.867 421.053 153.2 421.186 153.6C421.986 154.933 422.786 156.333 423.586 157.8C424.519 159.133 425.253 160.6 425.786 162.2C426.053 162.333 426.253 162.533 426.386 162.8C426.519 163.067 426.653 163.333 426.786 163.6C427.453 165.067 428.186 166.6 428.986 168.2C429.786 169.667 430.453 171.2 430.986 172.8C431.253 173.467 431.519 174.133 431.786 174.8C432.053 175.333 432.319 175.933 432.586 176.6C433.386 178.333 434.119 180.2 434.786 182.2C435.453 184.067 436.119 185.933 436.786 187.8C437.453 189.4 438.053 191.067 438.586 192.8C439.119 194.4 439.653 196.067 440.186 197.8L441.386 202.4C441.653 203.333 441.919 204.333 442.186 205.4C442.453 206.467 442.653 207.533 442.786 208.6V209.4C443.053 211.133 443.186 212.867 443.186 214.6C443.186 216.2 442.986 217.867 442.586 219.6C442.186 221.867 441.519 224.067 440.586 226.2C439.653 228.333 438.386 230.333 436.786 232.2L435.586 233.8C435.453 234.2 435.453 234.6 435.586 235C435.719 235.133 435.919 235.467 436.186 236C437.653 237.733 439.053 239.467 440.386 241.2C441.719 242.8 443.053 244.533 444.386 246.4L446.186 248.4C447.519 250 448.519 251.933 449.186 254.2C449.319 254.6 449.453 255 449.586 255.4C449.719 255.8 449.853 256.2 449.986 256.6C449.986 257.4 450.053 258 450.186 258.4C450.186 258.933 449.986 259.333 449.586 259.6C449.053 260 448.653 260.4 448.386 260.8C448.253 261.333 448.053 261.933 447.786 262.6C447.653 262.733 447.586 262.867 447.586 263C447.586 263.267 447.453 263.467 447.186 263.6L444.186 266C444.053 266 443.919 266 443.786 266C443.786 266.133 443.653 266.2 443.386 266.2C442.853 266.333 442.253 266.467 441.586 266.6C441.053 266.733 440.453 266.867 439.786 267ZM393.586 233.8H395.786C397.653 233.533 399.386 233.267 400.986 233C402.719 232.6 404.386 232.067 405.986 231.4L407.186 230.8C407.853 230.533 407.986 230.2 407.586 229.8L406.986 228.4C406.319 227.333 405.586 226.267 404.786 225.2C404.119 224 403.453 222.867 402.786 221.8C401.319 219.133 399.719 216.533 397.986 214C396.386 211.333 394.786 208.733 393.186 206.2C391.986 204.2 390.719 202.2 389.386 200.2C388.186 198.067 386.853 196 385.386 194L377.986 183.8C377.586 183.133 377.186 182.533 376.786 182C376.386 181.467 375.986 180.933 375.586 180.4L373.786 177.8C372.719 176.467 372.186 175.067 372.186 173.6C372.186 169.733 373.919 166.667 377.386 164.4C378.453 163.733 379.519 163.267 380.586 163C381.653 162.6 382.853 162.733 384.186 163.4C385.386 163.533 386.386 163.933 387.186 164.6C388.119 165.267 388.919 166.067 389.586 167L390.386 168.2C391.053 169 391.719 169.867 392.386 170.8C393.186 171.6 393.853 172.4 394.386 173.2C395.853 174.933 397.186 176.733 398.386 178.6C399.719 180.467 400.986 182.4 402.186 184.4L407.386 192.6C408.053 193.533 408.719 194.533 409.386 195.6C410.053 196.533 410.653 197.533 411.186 198.6C412.386 200.467 413.519 202.333 414.586 204.2C415.786 206.067 416.986 207.933 418.186 209.8C418.986 211.133 419.786 212.4 420.586 213.6C421.386 214.8 422.186 216 422.986 217.2H423.586C423.586 217.2 423.653 217.133 423.786 217C424.319 215.133 424.386 213.067 423.986 210.8L422.986 206.8C422.853 205.867 422.586 205 422.186 204.2C421.919 203.267 421.653 202.4 421.386 201.6C421.253 201.333 421.186 201.067 421.186 200.8C421.186 200.4 421.119 200.067 420.986 199.8C420.319 198.067 419.653 196.333 418.986 194.6C418.319 192.733 417.653 190.933 416.986 189.2C416.586 188 416.119 186.867 415.586 185.8C415.186 184.6 414.786 183.4 414.386 182.2C413.719 180.333 412.986 178.467 412.186 176.6C411.386 174.6 410.586 172.733 409.786 171C408.319 167.4 406.719 164.067 404.986 161C402.853 157.8 399.986 155 396.386 152.6C395.986 152.2 395.586 152 395.186 152C394.386 151.467 393.853 151.667 393.586 152.6C393.319 153.533 392.586 154.467 391.386 155.4C391.386 155.4 391.386 155.467 391.386 155.6C391.386 155.6 391.319 155.6 391.186 155.6C390.386 156.667 389.053 157.4 387.186 157.8L384.186 158.4C382.319 158.533 380.586 159.333 378.986 160.8C378.453 161.333 377.919 161.933 377.386 162.6C376.986 163.133 376.453 163.667 375.786 164.2L373.986 166.6C371.853 169.133 369.719 172 367.586 175.2C367.186 175.867 366.719 176.6 366.186 177.4C365.786 178.067 365.386 178.8 364.986 179.6C363.119 182.8 361.653 186.133 360.586 189.6C359.519 193.067 358.986 196.667 358.986 200.4C358.986 201.467 358.986 202.533 358.986 203.6C359.119 204.667 359.253 205.733 359.386 206.8C360.053 209.733 361.053 212.467 362.386 215C363.453 216.733 364.586 218.4 365.786 220C367.119 221.467 368.586 222.867 370.186 224.2L374.386 227.4C374.919 227.8 375.386 228.2 375.786 228.6C376.319 228.867 376.853 229.133 377.386 229.4C379.919 230.733 382.519 231.733 385.186 232.4C387.986 233.067 390.786 233.533 393.586 233.8ZM500.8 253C500.667 252.867 500.467 252.8 500.2 252.8C498.867 252 497.533 251.267 496.2 250.6C495 249.8 493.867 248.933 492.8 248C492.267 247.733 491.933 247.467 491.8 247.2C490.6 246.533 489.533 245.733 488.6 244.8C487.667 243.733 486.8 242.6 486 241.4C485.733 241.133 485.467 240.8 485.2 240.4C484.933 240 484.6 239.6 484.2 239.2C482.867 237.867 481.8 236.267 481 234.4C480.867 234 480.667 233.6 480.4 233.2C480.133 232.8 479.867 232.4 479.6 232C478.8 230.933 478.2 229.933 477.8 229C477.533 227.933 477.133 226.933 476.6 226C476.067 224.933 475.533 223.933 475 223C474.867 222.467 474.667 221.933 474.4 221.4C474.133 220.867 473.933 220.333 473.8 219.8C473.8 219.133 473.6 218.4 473.2 217.6C472.667 216.133 472.133 214.667 471.6 213.2C471.2 211.6 470.8 210 470.4 208.4C470.133 207.867 470 207.467 470 207.2C469.2 205.467 468.6 203.667 468.2 201.8C467.8 199.933 467.4 198.133 467 196.4L465.8 187.4C465.667 187.133 465.6 186.8 465.6 186.4C465.6 186 465.6 185.667 465.6 185.4C465.6 184.6 465.6 183.867 465.6 183.2C465.6 182.4 465.467 181.6 465.2 180.8C464.933 179.067 465 177.467 465.4 176C465.4 175.467 465.4 175 465.4 174.6C465.533 174.067 465.6 173.533 465.6 173C465.6 172.333 465.6 171.667 465.6 171C465.733 170.2 465.867 169.533 466 169C466.133 168.6 466.2 168.067 466.2 167.4C466.467 166.2 466.6 165.067 466.6 164C466.733 162.8 466.867 161.667 467 160.6C467.4 158.733 467.6 156.933 467.6 155.2C467.6 154.667 467.6 154.2 467.6 153.8C467.733 153.267 467.867 152.733 468 152.2C468 151 467.933 150.133 467.8 149.6C467.4 149.067 467.333 148.333 467.6 147.4C467.867 146.867 468 146.467 468 146.2C468.133 145.933 468.2 145.667 468.2 145.4C468.2 145 468.4 144.733 468.8 144.6H470.2C470.733 144.6 471.067 144.4 471.2 144C471.333 143.467 471.8 143.067 472.6 142.8C473.267 142.533 473.867 142.333 474.4 142.2C474.933 141.933 475.467 141.6 476 141.2C476.4 140.933 476.867 140.8 477.4 140.8C477.933 140.8 478.467 140.867 479 141L482.6 142.2C482.733 142.333 482.8 142.4 482.8 142.4C482.933 142.4 483.067 142.467 483.2 142.6C484.267 143.667 485.133 144.867 485.8 146.2C486.6 147.533 487.067 149 487.2 150.6C487.2 151.133 487.2 151.667 487.2 152.2C487.2 152.6 487.067 153.067 486.8 153.6C486.667 154.4 486.533 155.2 486.4 156C486.267 156.8 486.133 157.667 486 158.6C485.733 159.933 485.533 161.267 485.4 162.6C485.4 163.8 485.4 165.067 485.4 166.4C485.267 166.933 485.2 167.467 485.2 168C485.2 168.4 485.133 168.867 485 169.4C484.867 171 484.8 172.6 484.8 174.2C484.8 175.8 484.933 177.333 485.2 178.8C485.2 178.933 485.2 179.133 485.2 179.4C485.333 179.667 485.333 179.933 485.2 180.2C485.2 181.533 485.333 182.933 485.6 184.4C485.867 185.867 486.067 187.333 486.2 188.8C486.333 190.133 486.467 191.4 486.6 192.6C486.733 193.8 486.933 195 487.2 196.2C487.467 196.733 487.6 197.267 487.6 197.8C487.733 198.333 487.867 198.867 488 199.4C488.533 201.933 489.133 204.4 489.8 206.8C490.467 209.2 491.333 211.6 492.4 214C493.067 215.467 493.733 216.733 494.4 217.8C495.467 219.667 496.4 221.533 497.2 223.4C497.733 224.333 498.267 225.267 498.8 226.2C499.333 227 499.867 227.867 500.4 228.8C500.933 229.467 501.467 230.067 502 230.6C502.533 231.133 503.067 231.733 503.6 232.4C504.267 233.067 505.133 233.267 506.2 233C506.867 232.733 507.333 232.467 507.6 232.2C508.267 231.8 508.867 231.4 509.4 231C510.067 230.6 510.667 230.133 511.2 229.6C512.667 228.133 514 226.667 515.2 225.2C516.533 223.733 517.667 222.133 518.6 220.4C519.4 218.933 520.2 217.4 521 215.8C521.8 214.2 522.533 212.6 523.2 211C524 209.133 524.733 207.267 525.4 205.4C526.2 203.533 526.933 201.6 527.6 199.6C528.133 198.267 528.533 196.933 528.8 195.6C529.2 194.133 529.467 192.733 529.6 191.4C529.867 189.933 530.067 188.467 530.2 187C530.467 185.4 530.533 183.867 530.4 182.4C530.4 182 530.4 181.6 530.4 181.2C530.533 180.8 530.6 180.4 530.6 180C530.867 179.067 530.933 178.2 530.8 177.4C530.8 176.6 530.733 175.8 530.6 175C530.467 172.733 530.267 170.6 530 168.6C529.867 166.467 529.733 164.333 529.6 162.2C529.6 161.133 529.533 160.4 529.4 160C529.267 158.8 529.133 157.6 529 156.4C529 155.2 528.867 154 528.6 152.8V151.2C528.6 149.867 528.533 148.6 528.4 147.4C528.4 146.067 528.4 144.733 528.4 143.4C528.4 142.333 528.333 141.4 528.2 140.6C528.2 139.667 528.2 138.733 528.2 137.8C528.2 136.6 528.4 135.6 528.8 134.8C529.2 134.133 529.333 133.6 529.2 133.2C528.8 132.4 529 131.8 529.8 131.4C530.467 130.733 531.133 130.2 531.8 129.8C532.6 129.4 533.467 129.133 534.4 129C534.667 128.867 534.867 128.8 535 128.8C535.267 128.8 535.467 128.733 535.6 128.6C536.4 127.933 537.467 127.733 538.8 128C539.067 128.133 539.467 128.2 540 128.2C541.2 128.467 542.067 128.933 542.6 129.6C543 130 543.6 130.467 544.4 131C545.467 131.533 546.2 132.2 546.6 133C547 133.8 547.267 134.667 547.4 135.6C547.667 136.933 547.867 138.2 548 139.4C548.267 140.6 548.333 141.867 548.2 143.2V145C548.2 146.333 548.2 147.667 548.2 149C548.333 150.2 548.467 151.467 548.6 152.8C548.733 153.2 548.8 153.667 548.8 154.2C548.8 154.6 548.8 155 548.8 155.4C548.8 156.2 548.8 157 548.8 157.8C548.933 158.467 549.067 159.2 549.2 160C549.333 160.267 549.4 160.667 549.4 161.2C549.267 162.533 549.267 163.867 549.4 165.2C549.667 166.4 549.867 167.667 550 169C550.133 170.333 550.2 171.733 550.2 173.2C550.333 174.667 550.4 176.133 550.4 177.6C550.533 177.733 550.533 177.933 550.4 178.2C550.4 178.467 550.4 178.733 550.4 179C550 180.2 549.933 181.6 550.2 183.2C550.467 184.933 550.4 186.6 550 188.2C549.867 189.4 549.733 190.6 549.6 191.8C549.467 193 549.267 194.267 549 195.6C548.733 197.733 548.267 199.867 547.6 202C546.933 204.133 546.267 206.267 545.6 208.4C545.6 208.667 545.4 209.133 545 209.8C544.467 210.733 544 211.733 543.6 212.8C543.2 213.733 542.867 214.733 542.6 215.8L542 217.2C541.333 218.533 540.733 219.867 540.2 221.2C539.8 222.4 539.267 223.667 538.6 225C538.2 225.8 537.8 226.6 537.4 227.4C537 228.2 536.533 228.933 536 229.6C535.867 229.867 535.667 230.133 535.4 230.4C535.133 231.333 534.733 232.2 534.2 233C533.667 233.8 533.133 234.6 532.6 235.4C531.133 237.667 529.4 239.8 527.4 241.8C525.533 243.8 523.467 245.667 521.2 247.4L518.8 248.8C516.933 249.733 514.933 250.533 512.8 251.2C510.8 251.867 508.733 252.333 506.6 252.6C505.933 252.733 505.2 252.733 504.4 252.6C504 252.6 503.6 252.6 503.2 252.6C502.8 252.6 502.4 252.733 502 253H500.8ZM648.153 265.6C646.953 265.6 645.886 265.133 644.953 264.2C644.686 263.8 644.42 263.4 644.153 263C643.886 262.6 643.62 262.2 643.353 261.8C642.153 259 641.553 256.067 641.553 253L640.953 248.2C640.553 246.333 640.22 244.467 639.953 242.6C639.686 240.733 639.22 238.933 638.553 237.2L637.353 233.8C637.353 233.533 637.286 233.267 637.153 233C637.153 232.733 637.086 232.467 636.953 232.2L633.953 221.6C633.82 221.333 633.686 221 633.553 220.6C633.553 220.2 633.42 219.867 633.153 219.6C632.753 218.8 632.42 218 632.153 217.2C632.02 216.267 631.82 215.333 631.553 214.4C631.42 213.733 631.286 213.133 631.153 212.6C631.02 211.933 630.82 211.267 630.553 210.6C630.286 209.8 630.02 209.333 629.753 209.2C629.486 208.933 628.886 208.933 627.953 209.2C627.286 209.333 626.553 209.467 625.753 209.6C625.086 209.6 624.42 209.733 623.753 210C623.22 210.133 622.553 210.267 621.753 210.4C621.086 210.4 620.42 210.467 619.753 210.6L616.953 211.2C616.286 211.333 615.553 211.533 614.753 211.8C614.086 211.933 613.42 212 612.753 212L609.153 212.6C608.086 212.867 606.953 213.133 605.753 213.4C604.553 213.667 603.42 213.933 602.353 214.2C599.153 215 595.953 215.6 592.753 216C591.686 216.267 591.086 216.733 590.953 217.4C590.82 217.4 590.753 217.467 590.753 217.6C589.953 219.733 589.02 221.867 587.953 224C587.02 226 586.02 228.067 584.953 230.2C584.686 230.733 584.42 231.267 584.153 231.8C584.02 232.2 583.82 232.667 583.553 233.2C583.42 233.467 583.286 233.8 583.153 234.2C583.02 234.467 582.886 234.733 582.753 235C581.953 235.933 581.553 237.067 581.553 238.4C581.42 239.2 581.153 240 580.753 240.8C580.353 241.467 579.953 242.133 579.553 242.8C579.42 243.2 579.153 243.4 578.753 243.4C578.22 243.533 577.686 243.733 577.153 244C576.62 244.267 576.02 244.533 575.353 244.8C574.953 244.933 574.553 244.933 574.153 244.8C573.886 244.667 573.553 244.533 573.153 244.4C572.886 244.133 572.62 244 572.353 244C570.886 243.867 569.82 243 569.153 241.4C568.086 239.267 567.353 237.133 566.953 235C566.82 234.467 566.82 234 566.953 233.6C567.22 233.2 567.42 232.8 567.553 232.4C568.353 231.867 568.82 231.267 568.953 230.6V230.4C568.953 228.667 569.286 227.067 569.953 225.6C570.753 224 571.42 222.467 571.953 221C572.22 220.2 572.553 219.4 572.953 218.6C573.353 217.8 573.753 217 574.153 216.2C574.686 215.267 575.086 214.4 575.353 213.6C575.753 212.667 576.086 211.733 576.353 210.8C576.753 209.733 576.753 208.733 576.353 207.8C576.086 207 575.953 206.267 575.953 205.6C575.953 204.8 576.02 204 576.153 203.2C576.153 201.733 576.686 200.467 577.753 199.4C578.286 198.733 578.82 198.2 579.353 197.8C580.02 197.267 580.62 196.733 581.153 196.2C582.353 195 583.286 193.4 583.953 191.4C584.486 189.667 584.886 187.933 585.153 186.2C585.553 184.333 585.953 182.533 586.353 180.8C586.62 179.067 586.886 177.4 587.153 175.8C587.553 174.067 587.953 172.4 588.353 170.8C588.486 170.133 588.62 169.533 588.753 169C589.02 168.333 589.22 167.733 589.353 167.2C589.753 166.133 590.153 165.133 590.553 164.2C590.953 163.133 591.22 162.067 591.353 161C591.62 160.467 591.62 160 591.353 159.6C591.22 158.933 591.22 158.333 591.353 157.8C591.62 157.267 591.82 156.733 591.953 156.2C592.353 155.267 592.62 154.333 592.753 153.4C593.02 152.467 593.353 151.533 593.753 150.6C594.42 148.867 594.953 147.467 595.353 146.4C595.886 145.2 596.353 143.867 596.753 142.4C597.02 141.6 597.286 140.867 597.553 140.2C597.953 139.4 598.22 138.6 598.353 137.8C598.753 136.6 599.086 135.4 599.353 134.2C599.62 132.867 599.753 131.6 599.753 130.4C600.02 129.333 600.286 128.6 600.553 128.2C601.22 126.867 602.02 125.733 602.953 124.8C604.02 123.867 605.02 122.933 605.953 122C606.62 121.6 607.286 121.333 607.953 121.2C608.62 120.933 609.286 121 609.953 121.4C610.486 121.667 610.82 121.8 610.953 121.8C612.153 121.667 613.153 121.933 613.953 122.6C614.753 123.267 615.42 124.067 615.953 125C616.22 125.267 616.42 125.6 616.553 126C616.686 126.4 616.82 126.733 616.953 127C617.62 128.067 617.953 129.133 617.953 130.2C617.953 130.733 618.02 131.333 618.153 132C618.286 132.533 618.42 133.133 618.553 133.8C618.953 134.6 619.553 135 620.353 135C620.486 134.867 620.62 134.867 620.753 135C620.886 135.133 620.953 135.267 620.953 135.4C621.62 136.2 621.82 137.067 621.553 138C621.286 139.067 621.22 140.133 621.353 141.2C621.62 142.133 621.886 143.133 622.153 144.2C622.686 145.533 623.22 146.867 623.753 148.2C624.286 149.533 624.82 150.867 625.353 152.2C626.02 153.667 626.686 155.133 627.353 156.6C628.02 158.067 628.62 159.533 629.153 161C629.82 162.867 630.486 164.733 631.153 166.6C631.953 168.467 632.82 170.333 633.753 172.2L634.353 174.4C634.486 174.933 634.62 175.467 634.753 176C635.02 176.533 635.22 177.067 635.353 177.6C635.62 178 635.82 178.4 635.953 178.8C636.22 179.2 636.486 179.533 636.753 179.8C637.42 180.733 637.82 181.733 637.953 182.8C638.353 184.133 638.953 185.333 639.753 186.4C640.02 186.8 640.42 187 640.953 187C642.953 186.733 644.953 186.533 646.953 186.4C648.953 186.133 650.953 185.733 652.953 185.2C654.42 184.8 655.82 184.6 657.153 184.6C659.686 184.6 662.02 185.467 664.153 187.2C666.686 189.2 668.02 191.733 668.153 194.8C668.153 195.467 668.22 196 668.353 196.4C668.353 197.333 668.086 198.067 667.553 198.6C667.42 199 667.153 199.4 666.753 199.8C666.486 200.2 666.22 200.6 665.953 201C665.686 201.533 665.42 201.933 665.153 202.2L663.953 203.2C663.82 203.467 663.62 203.8 663.353 204.2C663.086 204.467 662.753 204.667 662.353 204.8C661.82 204.933 661.286 205.133 660.753 205.4C660.22 205.533 659.62 205.6 658.953 205.6C656.553 205.867 654.42 205.8 652.553 205.4H649.353C649.086 205.4 648.686 205.533 648.153 205.8C647.62 206.067 647.353 206.4 647.353 206.8V207.6C647.753 208.8 648.02 210.067 648.153 211.4C648.42 212.6 648.82 213.733 649.353 214.8C649.353 215.333 649.486 215.867 649.753 216.4C650.42 217.6 650.953 218.867 651.353 220.2C651.753 221.4 652.086 222.667 652.353 224C652.353 224.267 652.486 224.8 652.753 225.6C653.153 226.533 653.486 227.533 653.753 228.6C654.02 229.533 654.22 230.533 654.353 231.6C654.353 232.4 654.553 233.133 654.953 233.8C655.486 235 655.886 236.2 656.153 237.4C656.42 238.6 656.62 239.867 656.753 241.2C656.886 241.333 656.953 241.6 656.953 242C656.953 242.267 657.02 242.533 657.153 242.8C657.82 244.267 658.286 245.867 658.553 247.6C658.82 249.2 659.153 250.8 659.553 252.4C659.82 253.2 659.953 254 659.953 254.8C660.086 255.733 660.153 256.667 660.153 257.6C660.153 258.267 659.953 259 659.553 259.8C659.153 260.2 658.953 260.4 658.953 260.4C658.153 260.533 657.686 261 657.553 261.8L656.953 263C656.686 263.533 656.286 263.867 655.753 264C655.22 264 654.753 264.2 654.353 264.6C653.82 265.133 653.086 265.4 652.153 265.4C651.62 265.4 650.953 265.4 650.153 265.4C649.486 265.4 648.82 265.467 648.153 265.6ZM599.953 193C600.753 192.867 601.553 192.733 602.353 192.6C603.286 192.467 604.286 192.333 605.353 192.2C606.02 192.067 606.886 191.933 607.953 191.8C609.02 191.667 610.02 191.533 610.953 191.4C611.886 191.133 612.82 191 613.753 191C614.686 190.867 615.62 190.733 616.553 190.6C617.353 190.333 618.153 190.2 618.953 190.2C619.753 190.067 620.553 189.933 621.353 189.8C622.553 189.533 623.02 188.867 622.753 187.8C622.62 186.733 622.353 185.667 621.953 184.6C621.686 183.4 621.086 182.4 620.153 181.6C619.886 181.333 619.753 180.933 619.753 180.4V179.8C619.486 178.733 619.153 177.733 618.753 176.8C618.486 175.733 618.153 174.733 617.753 173.8C617.486 172.733 617.153 171.8 616.753 171C616.486 170.067 616.153 169.133 615.753 168.2L613.353 161C612.953 160.067 612.553 159.133 612.153 158.2C611.886 157.267 611.62 156.333 611.353 155.4L610.753 154.6H610.153L609.753 155.2C609.086 157.2 608.286 159.2 607.353 161.2C606.553 163.2 605.82 165.333 605.153 167.6C605.153 167.867 605.086 168.2 604.953 168.6C604.82 169 604.686 169.4 604.553 169.8C604.02 171.133 603.486 172.6 602.953 174.2C602.553 175.8 602.22 177.4 601.953 179C601.82 179.933 601.686 180.867 601.553 181.8C601.42 182.6 601.22 183.467 600.953 184.4L599.153 192.2C599.02 192.333 599.086 192.533 599.353 192.8C599.62 192.933 599.82 193 599.953 193ZM705.811 253.8C704.878 253.8 703.744 253.467 702.411 252.8C701.744 252.4 701.211 251.867 700.811 251.2C700.678 250.8 700.344 250.8 699.811 251.2C699.411 251.467 699.078 251.467 698.811 251.2C698.411 250.8 698.011 250.533 697.611 250.4C697.078 250.4 696.811 250.2 696.811 249.8C696.811 249.4 696.744 249.067 696.611 248.8C696.611 248.4 696.478 248.067 696.211 247.8C695.411 247.533 694.878 246.867 694.611 245.8C694.478 245.4 694.344 245.067 694.211 244.8C694.078 244.4 693.878 244 693.611 243.6C693.344 243.067 693.211 242.6 693.211 242.2C693.078 241.8 692.944 241.467 692.811 241.2C692.811 240.8 692.678 240.4 692.411 240C692.278 239.067 692.011 238.2 691.611 237.4C691.211 236.6 690.878 235.733 690.611 234.8C690.344 234.267 690.211 233.533 690.211 232.6C690.211 230.2 690.611 228 691.411 226C692.078 224.8 692.278 223.6 692.011 222.4C691.878 221.867 691.878 221.333 692.011 220.8C692.278 220.267 692.344 219.733 692.211 219.2C692.078 218.667 691.944 218.2 691.811 217.8C691.811 217.4 691.811 216.933 691.811 216.4C691.678 216.133 691.611 215.8 691.611 215.4C691.611 214.6 691.611 213.8 691.611 213C691.611 212.067 691.478 211.133 691.211 210.2C691.078 209.8 691.011 209.2 691.011 208.4V201C690.878 199.267 690.678 197.533 690.411 195.8C690.144 194.067 689.811 192.333 689.411 190.6C689.411 190.2 689.344 189.8 689.211 189.4C689.211 189 689.211 188.6 689.211 188.2C689.211 185.267 688.744 182.4 687.811 179.6V177.8C688.078 176.333 687.944 175.2 687.411 174.4C687.278 173.867 687.211 173.133 687.211 172.2V172C687.211 170.667 687.144 169.333 687.011 168C687.011 166.667 687.078 165.333 687.211 164C687.478 161.6 687.478 159.067 687.211 156.4C687.211 155.333 687.211 154.267 687.211 153.2C687.211 152.133 687.144 151.133 687.011 150.2V149C687.278 148.333 687.411 147.733 687.411 147.2C687.411 146.667 687.411 146.133 687.411 145.6C687.411 144 687.344 142.467 687.211 141C687.211 139.4 687.078 137.867 686.811 136.4C686.811 136 686.811 135.6 686.811 135.2C686.811 134.667 686.744 134.2 686.611 133.8C686.611 132.867 686.278 132.067 685.611 131.4L684.211 130.2C682.878 129.4 682.011 128.133 681.611 126.4C681.478 126.133 681.411 125.933 681.411 125.8C681.411 125.533 681.344 125.267 681.211 125C680.944 124.333 681.078 123.733 681.611 123.2C682.011 122.667 682.278 122.133 682.411 121.6C682.411 121.2 682.478 120.867 682.611 120.6C682.878 120.2 683.078 119.8 683.211 119.4C683.344 119 683.478 118.533 683.611 118C683.878 117.6 684.078 117.467 684.211 117.6C685.144 117.6 685.811 117.467 686.211 117.2C687.144 116.533 688.144 116.4 689.211 116.8C689.478 116.933 689.878 116.867 690.411 116.6C690.544 116.6 690.611 116.533 690.611 116.4C691.278 115.733 692.011 115.4 692.811 115.4C693.611 115.267 694.478 115.267 695.411 115.4C695.544 115.4 695.678 115.467 695.811 115.6C695.944 115.6 696.078 115.6 696.211 115.6C697.278 115.867 698.278 116.133 699.211 116.4C700.278 116.533 701.278 116.533 702.211 116.4C702.878 116.4 703.544 116.467 704.211 116.6C705.011 116.733 705.744 116.8 706.411 116.8C706.944 116.8 707.411 116.867 707.811 117C708.344 117.133 708.811 117.267 709.211 117.4C709.744 117.533 710.211 117.733 710.611 118C711.011 118.133 711.478 118.2 712.011 118.2C712.678 118.333 713.211 118.467 713.611 118.6C714.144 118.733 714.678 118.933 715.211 119.2C716.944 120.133 718.678 121 720.411 121.8C721.211 122.2 721.944 122.733 722.611 123.4C723.544 124.067 724.344 124.467 725.011 124.6C725.144 124.6 725.278 124.667 725.411 124.8C725.544 124.8 725.678 124.8 725.811 124.8C725.944 124.933 726.078 125 726.211 125C726.344 125 726.478 125.067 726.611 125.2C727.278 125.867 728.078 126.4 729.011 126.8C730.078 127.067 730.944 127.533 731.611 128.2C731.878 128.467 732.278 128.733 732.811 129C733.878 129.4 734.811 130 735.611 130.8C735.878 131.067 736.078 131.2 736.211 131.2C736.744 131.2 737.344 131.533 738.011 132.2L742.211 136.6C742.744 137.133 743.144 137.6 743.411 138C744.078 138.933 744.811 139.8 745.611 140.6C746.411 141.4 747.211 142.2 748.011 143C748.278 143.267 748.544 143.6 748.811 144C749.211 144.267 749.478 144.6 749.611 145C749.744 145.267 749.944 145.533 750.211 145.8C750.478 145.933 750.678 146.133 750.811 146.4C752.278 148 753.678 149.667 755.011 151.4C756.478 153.133 757.811 154.933 759.011 156.8C759.678 157.733 760.278 158.733 760.811 159.8C761.344 160.867 761.811 161.933 762.211 163C762.611 163.933 763.011 164.867 763.411 165.8C763.944 166.733 764.411 167.667 764.811 168.6C765.211 170.067 765.678 171.4 766.211 172.6C766.744 174.333 767.278 176 767.811 177.6C768.344 179.2 768.811 180.933 769.211 182.8L769.811 185.4C769.811 186.467 769.811 187.6 769.811 188.8C769.944 189.867 770.011 191 770.011 192.2C770.011 192.733 769.944 193.2 769.811 193.6C769.811 194 769.678 194.467 769.411 195C769.144 195.8 769.011 196.533 769.011 197.2C768.878 198.533 768.544 199.8 768.011 201C767.611 202.2 767.144 203.333 766.611 204.4C765.411 206.533 764.344 208.667 763.411 210.8C763.144 211.333 762.878 211.867 762.611 212.4C762.478 212.8 762.278 213.267 762.011 213.8L760.811 216.2C759.878 218.067 758.744 219.933 757.411 221.8C756.211 223.533 754.878 225.2 753.411 226.8C752.878 227.467 752.211 228.133 751.411 228.8C750.744 229.333 750.078 229.933 749.411 230.6C748.078 231.8 746.744 233 745.411 234.2C744.078 235.267 742.678 236.333 741.211 237.4C739.878 238.333 738.478 239.2 737.011 240C735.678 240.8 734.211 241.467 732.611 242C731.811 242.133 731.011 242.533 730.211 243.2C729.411 243.733 728.544 244.267 727.611 244.8C726.811 245.333 725.944 245.933 725.011 246.6C724.611 246.733 724.211 246.933 723.811 247.2C723.411 247.333 722.944 247.467 722.411 247.6C722.011 247.733 721.544 247.867 721.011 248C720.611 248.133 720.211 248.267 719.811 248.4C719.278 248.533 718.744 248.733 718.211 249C717.811 249.267 717.411 249.6 717.011 250C716.078 250.667 715.078 251.2 714.011 251.6C712.944 252.133 711.878 252.733 710.811 253.4C710.544 253.533 710.078 253.6 709.411 253.6C709.011 253.733 708.611 253.733 708.211 253.6C707.811 253.6 707.411 253.6 707.011 253.6V253.8H705.811ZM713.811 231.4C715.144 231.4 716.278 231.133 717.211 230.6C718.278 230.2 719.278 229.733 720.211 229.2C721.144 228.667 722.011 228.067 722.811 227.4L725.211 225C726.544 223.933 727.744 222.8 728.811 221.6C730.011 220.4 731.278 219.333 732.611 218.4C732.878 218.133 733.011 218 733.011 218C733.544 217.467 734.011 217 734.411 216.6C734.944 216.067 735.411 215.533 735.811 215C736.078 214.733 736.411 214.4 736.811 214C737.211 213.6 737.478 213.267 737.611 213C738.144 212.067 738.878 211.267 739.811 210.6C740.478 210.2 740.878 209.8 741.011 209.4C741.278 208.733 741.611 208.067 742.011 207.4C742.544 206.733 743.078 206.133 743.611 205.6C744.278 204.8 744.944 203.6 745.611 202L746.411 200C747.211 198.133 747.611 196.4 747.611 194.8C747.744 194.4 747.811 193.8 747.811 193C747.944 191 747.811 188.867 747.411 186.6C747.278 185.933 747.144 185.267 747.011 184.6C746.878 183.933 746.811 183.333 746.811 182.8C746.678 182.267 746.544 181.8 746.411 181.4C746.411 180.867 746.278 180.4 746.011 180C745.744 179.467 745.544 178.933 745.411 178.4C745.278 177.867 745.144 177.333 745.011 176.8C745.011 175.867 744.878 175.067 744.611 174.4C744.344 173.6 744.078 172.8 743.811 172C743.411 171.2 743.011 170.4 742.611 169.6C742.211 168.667 741.878 167.733 741.611 166.8L741.411 166C741.011 165.467 740.678 164.933 740.411 164.4C740.278 163.733 740.078 163.133 739.811 162.6C739.278 161.4 738.744 160.2 738.211 159C737.811 157.8 737.278 156.667 736.611 155.6C735.944 154.4 735.211 153.2 734.411 152C733.744 150.8 732.878 149.733 731.811 148.8C728.744 145.467 725.211 142.467 721.211 139.8C718.811 138.067 716.411 136.933 714.011 136.4C713.078 136.133 712.011 135.933 710.811 135.8C709.611 135.533 708.478 135.333 707.411 135.2C707.011 135.2 706.678 135.333 706.411 135.6C705.744 136.133 705.411 136.8 705.411 137.6C705.411 138.533 705.344 139.533 705.211 140.6C705.211 141.533 705.211 142.533 705.211 143.6C705.478 145.467 705.411 147 705.011 148.2C704.878 148.733 704.744 149.267 704.611 149.8C704.611 150.333 704.678 150.933 704.811 151.6C705.078 152.4 705.011 153.133 704.611 153.8C704.211 154.6 704.211 155.467 704.611 156.4C705.144 157.467 705.278 158.8 705.011 160.4C704.611 162 704.611 163.6 705.011 165.2C705.144 165.733 705.211 166.267 705.211 166.8C705.344 167.333 705.344 167.933 705.211 168.6C705.211 170.067 705.278 171.533 705.411 173C705.678 174.467 705.878 175.933 706.011 177.4C706.011 177.667 706.144 178.067 706.411 178.6V181.8C706.411 182.067 706.344 182.4 706.211 182.8C706.211 183.067 706.278 183.333 706.411 183.6C706.678 184.667 706.878 185.8 707.011 187C707.278 188.067 707.544 189.133 707.811 190.2C707.811 190.467 707.878 190.8 708.011 191.2C708.144 191.467 708.211 191.8 708.211 192.2C708.211 193.133 708.278 194.067 708.411 195C708.544 195.933 708.678 196.933 708.811 198C709.211 201.733 709.811 205.533 710.611 209.4C711.011 211 711.211 212.667 711.211 214.4C711.211 214.8 711.211 215.267 711.211 215.8C711.211 216.2 711.278 216.6 711.411 217C711.678 217.933 711.811 218.867 711.811 219.8C711.811 220.733 711.811 221.667 711.811 222.6C711.811 222.867 711.744 223.2 711.611 223.6C711.611 224 711.678 224.333 711.811 224.6C712.078 225.267 712.211 225.933 712.211 226.6C712.211 227.133 712.211 227.733 712.211 228.4C712.211 228.933 712.344 229.6 712.611 230.4C712.611 231.067 713.011 231.4 713.811 231.4ZM793.094 258.6C792.694 258.333 792.36 258 792.094 257.6C791.027 256.133 790.36 254.267 790.094 252C789.96 251.6 789.894 251.067 789.894 250.4C789.894 248.667 789.36 246.933 788.294 245.2C788.027 244.933 787.76 244.667 787.494 244.4C787.227 244 786.96 243.6 786.694 243.2C785.76 242.133 785.094 240.733 784.694 239C784.56 238.6 784.427 238.2 784.294 237.8C784.294 237.4 784.294 236.933 784.294 236.4C784.16 235.333 784.16 234.333 784.294 233.4C784.294 233.133 784.294 232.933 784.294 232.8C784.427 232.533 784.494 232.267 784.494 232C785.027 229.467 786.227 227.2 788.094 225.2C788.227 224.933 788.56 224.533 789.094 224C790.027 223.333 790.827 222.6 791.494 221.8C792.16 221 792.894 220.2 793.694 219.4C795.56 217.4 797.76 215.533 800.294 213.8L803.294 211.8C805.694 209.667 808.027 208.067 810.294 207C811.227 206.733 812.027 206.333 812.694 205.8C813.36 205.267 814.027 204.733 814.694 204.2C815.36 203.667 815.627 203.067 815.494 202.4C815.36 201.867 815.227 201.333 815.094 200.8C814.96 200.267 814.827 199.733 814.694 199.2C814.427 197.467 814.16 195.733 813.894 194C813.76 192.133 813.694 190.333 813.694 188.6V183C813.694 182.067 813.694 181.133 813.694 180.2C813.827 179.267 813.96 178.333 814.094 177.4L814.694 171C814.827 170.467 814.894 170 814.894 169.6C814.894 169.067 814.96 168.533 815.094 168C815.36 166.933 815.56 165.867 815.694 164.8C815.96 163.6 816.227 162.467 816.494 161.4C816.76 160.067 817.094 158.8 817.494 157.6C817.894 156.4 818.36 155.2 818.894 154C819.427 152.933 819.96 151.867 820.494 150.8C821.16 149.733 821.76 148.733 822.294 147.8C822.96 146.733 823.694 145.667 824.494 144.6C825.294 143.533 826.094 142.533 826.894 141.6C828.227 140.267 829.56 139.133 830.894 138.2C833.294 136.467 835.96 135 838.894 133.8C841.827 132.467 845.227 131.6 849.094 131.2L855.694 130C856.36 130 856.894 129.8 857.294 129.4C858.094 128.733 858.894 128.133 859.694 127.6C860.494 126.933 861.294 126.267 862.094 125.6C862.36 125.467 862.494 125.333 862.494 125.2C862.627 125.067 862.76 124.933 862.894 124.8C863.96 123.467 865.16 122.733 866.494 122.6C867.294 122.467 868.027 122.333 868.694 122.2C869.494 122.067 870.294 121.933 871.094 121.8C873.76 121 876.094 121.8 878.094 124.2C878.76 125 879.16 125.867 879.294 126.8C879.294 127.333 879.294 127.867 879.294 128.4C879.427 128.8 879.56 129.267 879.694 129.8C879.694 131.4 880.36 132.867 881.694 134.2C882.36 135 882.96 135.8 883.494 136.6C884.16 137.4 884.76 138.2 885.294 139C885.56 139.533 885.827 140.067 886.094 140.6C886.494 141 886.827 141.533 887.094 142.2C887.494 143.133 887.894 144.067 888.294 145C888.694 145.933 889.16 146.867 889.694 147.8C889.96 148.333 890.227 148.733 890.494 149C890.494 149.133 890.627 149.2 890.894 149.2C891.027 149.2 891.094 149.2 891.094 149.2C891.094 149.067 891.16 149 891.294 149L904.294 138.2C904.694 137.8 905.094 137.467 905.494 137.2C906.027 136.8 906.56 136.4 907.094 136C909.494 134.267 912.227 133.067 915.294 132.4C917.427 131.867 919.56 132 921.694 132.8C922.76 133.333 923.694 133.933 924.494 134.6C925.427 135.267 926.094 136.2 926.494 137.4C927.027 138.6 927.494 139.933 927.894 141.4C928.027 142.333 928.027 143.267 927.894 144.2L926.694 147.4C926.56 147.933 926.294 148.4 925.894 148.8C925.627 149.2 925.36 149.6 925.094 150C924.56 150.533 924.027 151.067 923.494 151.6C922.96 152 922.36 152.333 921.694 152.6C921.427 152.733 921.16 152.867 920.894 153C920.627 153.133 920.36 153.267 920.094 153.4C919.694 153.533 919.294 153.733 918.894 154C918.494 154.267 918.16 154.533 917.894 154.8C917.094 155.467 916.36 155.867 915.694 156C914.76 156.133 913.827 156.4 912.894 156.8C912.094 157.2 911.36 157.667 910.694 158.2C909.76 158.733 908.827 159.267 907.894 159.8C907.094 160.333 906.227 160.867 905.294 161.4C904.36 161.933 903.427 162.667 902.494 163.6L897.894 167.6L897.094 168.4C896.56 168.933 896.36 169.6 896.494 170.4L897.094 175C897.36 176.733 897.627 178.4 897.894 180C898.16 181.6 898.36 183.267 898.494 185C898.627 185.933 898.694 186.867 898.694 187.8C898.827 188.6 898.894 189.467 898.894 190.4C899.027 191.333 899.16 192.267 899.294 193.2C899.427 194 899.56 194.867 899.694 195.8C899.96 197.267 900.094 198.8 900.094 200.4C900.094 201.867 900.027 203.333 899.894 204.8C899.76 205.6 899.627 206.4 899.494 207.2C899.36 208 899.16 208.8 898.894 209.6C898.76 210.4 898.56 211.2 898.294 212C898.16 212.667 898.094 213.4 898.094 214.2C897.96 215.933 897.56 217.733 896.894 219.6C896.627 220.533 896.294 221.6 895.894 222.8C895.627 223.867 895.294 224.933 894.894 226C894.494 227.333 893.96 228.667 893.294 230C892.627 231.333 891.96 232.667 891.294 234C891.027 234.533 890.694 235 890.294 235.4C890.027 235.8 889.76 236.2 889.494 236.6C888.96 237.133 888.427 237.667 887.894 238.2C887.494 238.733 887.094 239.333 886.694 240C886.16 240.933 885.36 241.733 884.294 242.4C883.227 243.067 882.227 243.333 881.294 243.2C881.16 243.2 881.027 243.2 880.894 243.2C880.894 243.067 880.827 243 880.694 243C880.56 243.133 880.36 243.2 880.094 243.2C879.96 243.2 879.827 243.267 879.694 243.4L876.494 245.8C873.694 247.8 870.694 249.4 867.494 250.6C867.36 250.6 867.027 250.733 866.494 251C865.427 251.4 864.427 252.133 863.494 253.2C863.227 253.467 862.827 254 862.294 254.8C861.494 255.867 860.427 256.467 859.094 256.6C857.36 256.867 856.094 256.267 855.294 254.8C855.16 254.533 855.027 254.267 854.894 254C854.894 253.733 854.76 253.467 854.494 253.2C854.094 251.867 853.227 251.2 851.894 251.2C851.094 250.933 850.294 250.667 849.494 250.4C848.694 250 847.96 249.667 847.294 249.4C845.694 248.6 844.094 247.733 842.494 246.8C841.027 245.867 839.56 244.933 838.094 244C837.694 243.733 837.294 243.467 836.894 243.2C836.627 242.933 836.36 242.667 836.094 242.4L831.694 237.8L829.294 234.8C828.494 233.733 827.694 232.6 826.894 231.4C826.227 230.2 825.56 228.933 824.894 227.6C824.627 226.933 824.227 226.267 823.694 225.6C823.294 224.933 822.96 224.267 822.694 223.6C822.694 223.467 822.56 223.4 822.294 223.4C822.16 223.267 822.027 223.267 821.894 223.4L821.094 224.2C820.827 224.467 820.494 224.8 820.094 225.2C819.827 225.467 819.494 225.733 819.094 226C818.427 226.533 817.76 227.133 817.094 227.8C816.56 228.467 816.027 229.133 815.494 229.8C815.227 230.333 814.894 230.867 814.494 231.4C814.094 231.8 813.627 232.267 813.094 232.8C811.76 234.133 810.427 235.533 809.094 237C807.894 238.467 806.694 239.933 805.494 241.4C804.694 242.333 803.694 243.133 802.494 243.8C800.36 244.867 799.094 246.8 798.694 249.6C798.56 250.267 798.427 250.933 798.294 251.6C798.294 252.4 798.294 253.2 798.294 254C798.294 254.267 798.227 254.6 798.094 255C798.094 255.4 798.094 255.8 798.094 256.2C797.96 257 797.56 257.6 796.894 258C795.827 259.067 794.56 259.267 793.094 258.6ZM833.294 190.8L834.694 190C835.76 189.2 836.76 188.467 837.694 187.8C838.76 187 839.76 186.2 840.694 185.4C842.427 184.2 844.094 182.933 845.694 181.6C847.294 180.267 848.894 178.933 850.494 177.6C851.96 176.133 853.494 174.867 855.094 173.8C856.827 172.6 858.56 171.4 860.294 170.2C861.494 169.533 862.627 168.8 863.694 168C864.894 167.2 866.094 166.467 867.294 165.8C867.56 165.533 867.894 165.267 868.294 165C868.694 164.733 869.027 164.467 869.294 164.2C869.694 163.8 869.827 163.333 869.694 162.8C869.56 162.533 869.494 162.267 869.494 162C869.494 161.733 869.427 161.533 869.294 161.4C868.894 160.2 868.427 159.067 867.894 158C867.494 156.8 867.094 155.6 866.694 154.4L866.094 153C865.694 152.2 865.16 152 864.494 152.4L863.294 153C862.494 153.4 861.694 153.4 860.894 153C860.36 152.733 859.894 152.467 859.494 152.2C858.694 151.4 858.16 150.8 857.894 150.4C857.36 149.867 856.627 149.467 855.694 149.2C854.627 148.8 853.494 148.8 852.294 149.2C851.36 149.6 850.427 150 849.494 150.4C848.56 150.667 847.627 151 846.694 151.4C844.96 151.933 843.694 152.6 842.894 153.4C841.96 154.2 841.027 155.067 840.094 156C839.294 156.8 838.56 157.8 837.894 159C837.76 159.133 837.56 159.467 837.294 160C836.894 160.4 836.56 160.867 836.294 161.4C834.827 164.6 833.894 167.667 833.494 170.6L832.894 175.2C832.627 176.533 832.427 178 832.294 179.6C832.16 181.067 832.027 182.733 831.894 184.6C831.894 185.267 831.96 186.133 832.094 187.2C832.227 188.267 832.36 189.333 832.494 190.4C832.76 190.933 833.027 191.067 833.294 190.8ZM859.494 228.4C862.56 228 865.427 226.8 868.094 224.8C869.56 223.6 870.894 222.267 872.094 220.8C873.294 219.333 874.227 217.733 874.894 216L877.894 208C878.16 207.333 878.36 206.6 878.494 205.8C878.627 205 878.694 204.267 878.694 203.6C878.56 203.2 878.494 202.8 878.494 202.4C878.494 202 878.427 201.667 878.294 201.4C878.16 200.467 878.027 199.6 877.894 198.8C877.76 197.867 877.627 197 877.494 196.2C877.36 195.667 877.294 195.2 877.294 194.8C877.294 194.267 877.227 193.733 877.094 193.2L876.494 186.6C876.36 186.333 876.294 186.067 876.294 185.8C876.294 185.4 876.16 185.067 875.894 184.8C875.627 184.533 875.427 184.4 875.294 184.4C875.16 184.533 874.96 184.6 874.694 184.6C874.56 184.6 874.427 184.667 874.294 184.8L870.094 187.2C868.36 188.533 866.56 189.8 864.694 191C862.827 192.2 861.027 193.467 859.294 194.8C858.227 195.6 857.16 196.4 856.094 197.2C855.027 198 853.96 198.8 852.894 199.6L841.694 208.4C840.627 209.2 839.76 209.933 839.094 210.6C838.694 211 838.56 211.467 838.694 212L839.094 212.6C839.76 213.8 840.427 215.067 841.094 216.4C841.76 217.6 842.36 218.8 842.894 220C843.694 221.333 844.76 222.467 846.094 223.4C847.16 224.333 848.427 225.267 849.894 226.2C852.694 228.067 855.894 228.8 859.494 228.4Z" fill="black"/>
</svg>
